<svg xmlns="http://www.w3.org/2000/svg" width="1100" height="190" viewBox="0 0 1100 190"><rect width="1100" height="190" rx="18" fill="#050505" stroke="#222"/><text x="28" y="34" fill="#00ff88" font-family="monospace" font-size="16">ojas@github:~$ contributions --last-53-weeks</text><g transform="translate(28 55)"><script xmlns="http://www.w3.org/2000/svg" type="text/plain"></script><g fill="#161b22"><rect width="14" height="14" rx="3" x="0" y="0"/><rect width="14" height="14" rx="3" x="0" y="20"/><rect width="14" height="14" rx="3" x="0" y="40"/><rect width="14" height="14" rx="3" x="0" y="60"/><rect width="14" height="14" rx="3" x="0" y="80"/></g><g fill="#0e4429"><rect width="14" height="14" rx="3" x="20" y="0"/><rect width="14" height="14" rx="3" x="40" y="20"/><rect width="14" height="14" rx="3" x="60" y="40"/><rect width="14" height="14" rx="3" x="80" y="60"/></g><g fill="#006d32"><rect width="14" height="14" rx="3" x="120" y="20"/><rect width="14" height="14" rx="3" x="140" y="40"/><rect width="14" height="14" rx="3" x="160" y="60"/><rect width="14" height="14" rx="3" x="180" y="80"/></g><g fill="#26a641"><rect width="14" height="14" rx="3" x="240" y="0"/><rect width="14" height="14" rx="3" x="260" y="20"/><rect width="14" height="14" rx="3" x="280" y="40"/><rect width="14" height="14" rx="3" x="300" y="60"/><rect width="14" height="14" rx="3" x="320" y="80"/></g><g fill="#39d353"><rect width="14" height="14" rx="3" x="380" y="0"/><rect width="14" height="14" rx="3" x="400" y="20"/><rect width="14" height="14" rx="3" x="420" y="40"/><rect width="14" height="14" rx="3" x="440" y="60"/><rect width="14" height="14" rx="3" x="460" y="80"/></g><g fill="#0e4429"><rect width="14" height="14" rx="3" x="520" y="40"/><rect width="14" height="14" rx="3" x="540" y="60"/><rect width="14" height="14" rx="3" x="560" y="80"/></g><g fill="#26a641"><rect width="14" height="14" rx="3" x="620" y="20"/><rect width="14" height="14" rx="3" x="640" y="40"/><rect width="14" height="14" rx="3" x="660" y="60"/></g><g fill="#39d353"><rect width="14" height="14" rx="3" x="720" y="0"/><rect width="14" height="14" rx="3" x="740" y="20"/><rect width="14" height="14" rx="3" x="760" y="40"/><rect width="14" height="14" rx="3" x="780" y="60"/></g><g fill="#0e4429"><rect width="14" height="14" rx="3" x="840" y="60"/><rect width="14" height="14" rx="3" x="860" y="80"/><rect width="14" height="14" rx="3" x="880" y="40"/><rect width="14" height="14" rx="3" x="900" y="20"/><rect width="14" height="14" rx="3" x="920" y="0"/></g><g fill="#006d32"><rect width="14" height="14" rx="3" x="980" y="0"/><rect width="14" height="14" rx="3" x="1000" y="20"/><rect width="14" height="14" rx="3" x="1020" y="40"/></g><g><animateTransform attributeName="transform" type="translate" values="0 -100;0 0" dur="1.8s" fill="freeze"/></g></g><text x="28" y="170" fill="#666" font-family="monospace" font-size="13">activity renders here and is refreshed automatically by the profile workflow</text></svg>
